# Hierarchical Translation and Rotation (.htr) file
# Generated by EVaRT
[Header]
FileType htr
DataType HTRS
FileVersion 1
NumSegments 23
NumFrames 4
DataFrameRate 120
EulerRotationOrder ZYX
CalibrationUnits mm
RotationUnits Degrees
GlobalAxisofGravity Y
BoneLengthAxis Y
ScaleFactor 1
[SegmentNames&Hierarchy]
#CHILD            PARENT
DaveRoot          GLOBAL
Spine1            DaveRoot
Spine2            Spine1
Spine3            Spine2
Spine4            Spine3
Neck              Spine4
Head              Neck
LClavicle         Spine4
LUpperArm         LClavicle
LLowerArm         LUpperArm
LHand             LLowerArm
RClavicle         Spine4
RUpperArm         RClavicle
RLowerArm         RUpperArm
RHand             RLowerArm
RUpperLeg         DaveRoot
RLowerLeg         RUpperLeg
RFoot             RLowerLeg
RToes             RFoot
LUpperLeg         DaveRoot
LLowerLeg         LUpperLeg
LFoot             LLowerLeg
LToes             LFoot
[BasePosition]
#SegmentName      Tx   Ty   Tz   Rx   Ry   Rz   BoneLength
DaveRoot          -2055.569378	951.555595	-349.488296	-55.286396	87.050266	-65.121985	100.000000
Spine1            0.000000	100.000000	0.000000	-15.583766	0.109194	-2.004305	100.000000
Spine2            0.000000	100.000000	0.000000	5.873579	0.737526	-1.849210	100.000000
Spine3            0.000000	100.000000	0.000000	12.197367	0.936767	-1.756723	100.000000
Spine4            0.000000	100.000000	0.000000	13.310112	2.040835	-0.212222	100.000000
Neck              0.000000	100.000000	0.000000	12.619245	0.173111	5.676401	80.000000
Head              0.000000	80.000000	0.000000	-46.107413	-7.464542	12.340102	200.000000
LClavicle         0.000000	100.000000	0.000000	1.044460	-1.911847	-125.483710	200.000000
LUpperArm         0.000000	200.000000	0.000000	43.357802	45.679579	2.001361	300.000000
LLowerArm         0.000000	300.000000	0.000000	0.730208	2.175812	1.895763	200.000000
LHand             0.000000	200.000000	0.000000	7.864047	-1.768569	8.793625	120.000000
RClavicle         0.000000	100.000000	0.000000	-0.545713	-3.840301	119.120382	200.000000
RUpperArm         0.000000	200.000000	0.000000	38.253382	-38.646808	20.273438	300.000000
RLowerArm         0.000000	300.000000	0.000000	3.077531	-3.682026	-7.348670	200.000000
RHand             0.000000	200.000000	0.000000	24.943087	4.220171	-5.193807	120.000000
RUpperLeg         -115.911102	-10.000000	31.058285	22.464267	14.037388	-176.329742	530.000000
RLowerLeg         0.000000	530.000000	0.000000	-23.704548	0.479387	-2.520024	460.000000
RFoot             0.000000	460.000000	0.000000	90.327319	5.730808	-0.531790	130.000000
RToes             0.000000	130.000000	0.000000	18.726053	0.005479	-0.002881	100.000000
LUpperLeg         115.911102	-10.000000	31.058285	16.272232	9.077962	178.396881	530.000000
LLowerLeg         0.000000	530.000000	0.000000	-9.044305	-3.275937	3.046484	460.000000
LFoot             0.000000	460.000000	0.000000	80.193205	-12.160808	23.252942	130.000000
LToes             0.000000	130.000000	0.000000	33.283153	-0.000000	-0.000086	100.000000
#Beginning of Data.
[DaveRoot]
#Fr	Tx	Ty	Tz	Rx	Ry	Rz	SF
1296	260.097998	8.420860	662.860477	7.379564	-25.693511	0.019375	1.000000	
1297	259.420274	9.741335	660.892104	7.505146	-25.934475	0.424495	1.000000	
1298	259.039911	11.299496	658.868017	7.756366	-26.246550	0.874782	1.000000	
1299	258.355966	12.213154	656.810822	7.686562	-26.500067	1.240725	1.000000	
[Spine1]
#Fr	Tx	Ty	Tz	Rx	Ry	Rz	SF
1296	0.000000	0.000000	0.000000	-0.476769	0.631789	5.876413	1.000000	
1297	0.000000	0.000000	0.000000	-0.408943	0.639378	5.733623	1.000000	
1298	0.000000	0.000000	0.000000	-0.528141	0.720433	5.601687	1.000000	
1299	0.000000	0.000000	0.000000	-0.315433	0.710754	5.488851	1.000000	
[Spine2]
#Fr	Tx	Ty	Tz	Rx	Ry	Rz	SF
1296	0.000000	0.000000	0.000000	-0.476769	0.631789	5.876413	1.000000	
1297	0.000000	0.000000	0.000000	-0.408943	0.639378	5.733623	1.000000	
1298	0.000000	0.000000	0.000000	-0.528141	0.720433	5.601687	1.000000	
1299	0.000000	0.000000	0.000000	-0.315433	0.710754	5.488851	1.000000	
[Spine3]
#Fr	Tx	Ty	Tz	Rx	Ry	Rz	SF
1296	0.000000	0.000000	0.000000	-0.476769	0.631789	5.876413	1.000000	
1297	0.000000	0.000000	0.000000	-0.408943	0.639378	5.733623	1.000000	
1298	0.000000	0.000000	0.000000	-0.528141	0.720433	5.601687	1.000000	
1299	0.000000	0.000000	0.000000	-0.315433	0.710754	5.488851	1.000000	
[Spine4]
#Fr	Tx	Ty	Tz	Rx	Ry	Rz	SF
1296	0.000000	0.000000	0.000000	-0.476769	0.631789	5.876413	1.000000	
1297	0.000000	0.000000	0.000000	-0.408943	0.639378	5.733623	1.000000	
1298	0.000000	0.000000	0.000000	-0.528141	0.720433	5.601687	1.000000	
1299	0.000000	0.000000	0.000000	-0.315433	0.710754	5.488851	1.000000	
[Neck]
#Fr	Tx	Ty	Tz	Rx	Ry	Rz	SF
1296	0.000000	0.000000	0.000000	-8.379259	21.342960	-13.883416	1.000000	
1297	0.000000	0.000000	0.000000	-8.608303	21.219639	-13.967802	1.000000	
1298	0.000000	0.000000	0.000000	-8.245185	21.035591	-13.815368	1.000000	
1299	0.000000	0.000000	0.000000	-8.789767	20.901219	-14.151249	1.000000	
[Head]
#Fr	Tx	Ty	Tz	Rx	Ry	Rz	SF
1296	0.000000	0.000000	0.000000	-8.379259	21.342960	-13.883416	1.000000	
1297	0.000000	0.000000	0.000000	-8.608303	21.219639	-13.967802	1.000000	
1298	0.000000	0.000000	0.000000	-8.245185	21.035591	-13.815368	1.000000	
1299	0.000000	0.000000	0.000000	-8.789767	20.901219	-14.151249	1.000000	
[LClavicle]
#Fr	Tx	Ty	Tz	Rx	Ry	Rz	SF
1296	0.000000	0.000000	0.000000	9.442916	1.268287	13.434086	1.000000	
1297	0.000000	0.000000	0.000000	8.682703	1.115072	13.752402	1.000000	
1298	0.000000	0.000000	0.000000	9.808671	1.338136	13.321837	1.000000	
1299	0.000000	0.000000	0.000000	8.183711	1.012737	14.007981	1.000000	
[LUpperArm]
#Fr	Tx	Ty	Tz	Rx	Ry	Rz	SF
1296	0.000000	0.000000	0.000000	16.992546	-1.851230	-14.960155	1.000000	
1297	0.000000	0.000000	0.000000	20.597316	-0.368442	-13.832335	1.000000	
1298	0.000000	0.000000	0.000000	15.674135	-5.923555	-15.831703	1.000000	
1299	0.000000	0.000000	0.000000	22.780674	-2.294023	-13.755937	1.000000	
[LLowerArm]
#Fr	Tx	Ty	Tz	Rx	Ry	Rz	SF
1296	0.000000	0.000000	0.000000	11.175833	-0.000000	-0.000000	1.000000	
1297	0.000000	0.000000	0.000000	2.383460	-0.000000	-0.000000	1.000000	
1298	0.000000	0.000000	0.000000	13.967357	-0.000000	-0.000000	1.000000	
1299	0.000000	0.000000	0.000000	-2.385133	-0.000000	-0.000000	1.000000	
[LHand]
#Fr	Tx	Ty	Tz	Rx	Ry	Rz	SF
1296	0.000000	0.000000	0.000000	-0.924621	0.000000	0.000000	1.000000	
1297	0.000000	0.000000	0.000000	5.834339	0.000000	0.000000	1.000000	
1298	0.000000	0.000000	0.000000	-4.185660	0.000000	0.000000	1.000000	
1299	0.000000	0.000000	0.000000	8.462153	-0.000000	0.000000	1.000000	
[RClavicle]
#Fr	Tx	Ty	Tz	Rx	Ry	Rz	SF
1296	0.000000	0.000000	0.000000	3.846120	0.268936	-15.290163	1.000000	
1297	0.000000	0.000000	0.000000	3.752373	0.256018	-15.193903	1.000000	
1298	0.000000	0.000000	0.000000	4.012868	0.274069	-15.197036	1.000000	
1299	0.000000	0.000000	0.000000	3.641458	0.253128	-15.267370	1.000000	
[RUpperArm]
#Fr	Tx	Ty	Tz	Rx	Ry	Rz	SF
1296	0.000000	0.000000	0.000000	-4.182359	-5.552641	-3.596081	1.000000	
1297	0.000000	0.000000	0.000000	-4.043050	-5.047263	-3.827228	1.000000	
1298	0.000000	0.000000	0.000000	-4.389344	-4.822007	-3.200785	1.000000	
1299	0.000000	0.000000	0.000000	-3.640210	-4.592020	-3.884699	1.000000	
[RLowerArm]
#Fr	Tx	Ty	Tz	Rx	Ry	Rz	SF
1296	0.000000	0.000000	0.000000	18.745855	-0.000000	-0.000000	1.000000	
1297	0.000000	0.000000	0.000000	19.269575	-0.000000	-0.000000	1.000000	
1298	0.000000	0.000000	0.000000	18.920125	-0.000000	-0.000000	1.000000	
1299	0.000000	0.000000	0.000000	19.123593	-0.000000	-0.000000	1.000000	
[RHand]
#Fr	Tx	Ty	Tz	Rx	Ry	Rz	SF
1296	0.000000	0.000000	0.000000	-21.828774	-14.194952	9.033524	1.000000	
1297	0.000000	0.000000	0.000000	-22.627817	-14.107413	9.454405	1.000000	
1298	0.000000	0.000000	0.000000	-22.092075	-14.304154	9.202866	1.000000	
1299	0.000000	0.000000	0.000000	-22.674395	-14.034774	9.536937	1.000000	
[RUpperLeg]
#Fr	Tx	Ty	Tz	Rx	Ry	Rz	SF
1296	0.000000	0.000000	0.000000	-1.717952	19.526327	9.501548	1.000000	
1297	0.000000	0.000000	0.000000	-1.452692	19.721426	9.337096	1.000000	
1298	0.000000	0.000000	0.000000	-1.049527	19.730980	9.246320	1.000000	
1299	0.000000	0.000000	0.000000	-0.974539	19.696485	9.032046	1.000000	
[RLowerLeg]
#Fr	Tx	Ty	Tz	Rx	Ry	Rz	SF
1296	0.000000	0.000000	0.000000	11.313010	0.000000	0.000000	1.000000	
1297	0.000000	0.000000	0.000000	11.769857	0.000000	0.000000	1.000000	
1298	0.000000	0.000000	0.000000	12.253217	0.000000	0.000000	1.000000	
1299	0.000000	0.000000	0.000000	12.673337	0.000000	0.000000	1.000000	
[RFoot]
#Fr	Tx	Ty	Tz	Rx	Ry	Rz	SF
1296	0.000000	0.000000	0.000000	13.707994	39.704057	13.009195	1.000000	
1297	0.000000	0.000000	0.000000	13.203329	39.799355	13.236137	1.000000	
1298	0.000000	0.000000	0.000000	12.633890	39.864044	13.321610	1.000000	
1299	0.000000	0.000000	0.000000	12.269785	40.124438	13.361455	1.000000	
[RToes]
#Fr	Tx	Ty	Tz	Rx	Ry	Rz	SF
1296	0.000000	0.000000	0.000000	-43.223624	0.000000	0.000000	1.000000	
1297	0.000000	0.000000	0.000000	-43.331905	0.000000	0.000000	1.000000	
1298	0.000000	0.000000	0.000000	-43.424428	0.000000	0.000000	1.000000	
1299	0.000000	0.000000	0.000000	-43.729624	-0.000000	0.000000	1.000000	
[LUpperLeg]
#Fr	Tx	Ty	Tz	Rx	Ry	Rz	SF
1296	0.000000	0.000000	0.000000	14.286928	7.092978	26.606137	1.000000	
1297	0.000000	0.000000	0.000000	14.733948	6.343211	26.138489	1.000000	
1298	0.000000	0.000000	0.000000	15.241897	5.614285	25.684065	1.000000	
1299	0.000000	0.000000	0.000000	15.564352	4.908082	25.197801	1.000000	
[LLowerLeg]
#Fr	Tx	Ty	Tz	Rx	Ry	Rz	SF
1296	0.000000	0.000000	0.000000	3.436694	0.000000	-0.000000	1.000000	
1297	0.000000	0.000000	0.000000	2.945473	0.000000	-0.000000	1.000000	
1298	0.000000	0.000000	0.000000	2.501524	0.000000	-0.000000	1.000000	
1299	0.000000	0.000000	0.000000	1.833301	0.000000	-0.000000	1.000000	
[LFoot]
#Fr	Tx	Ty	Tz	Rx	Ry	Rz	SF
1296	0.000000	0.000000	0.000000	-13.534062	-11.439565	30.006844	1.000000	
1297	0.000000	0.000000	0.000000	-12.435650	-11.307425	29.665367	1.000000	
1298	0.000000	0.000000	0.000000	-11.525231	-11.427080	29.374783	1.000000	
1299	0.000000	0.000000	0.000000	-10.579194	-11.532393	28.783753	1.000000	
[LToes]
#Fr	Tx	Ty	Tz	Rx	Ry	Rz	SF
1296	0.000000	0.000000	0.000000	-5.936606	-0.000000	0.000000	1.000000	
1297	0.000000	0.000000	0.000000	-5.892655	-0.000000	0.000000	1.000000	
1298	0.000000	0.000000	0.000000	-5.982441	-0.000000	0.000000	1.000000	
1299	0.000000	0.000000	0.000000	-5.924783	-0.000000	0.000000	1.000000	
